<svg xmlns="http://www.w3.org/2000/svg" xmlns:xlink="http://www.w3.org/1999/xlink" id="Livello_1" x="0px" y="0px" viewBox="0 0 81 70" style="enable-background:new 0 0 81 70;" xml:space="preserve"><style type="text/css">	.st0{fill:#1386A1;}	.st1{clip-path:url(#SVGID_2_);}</style><g>	<path class="st0" d="M11.2,13.4c0.7-0.5,0.7-1.6,0.1-2.2c-0.3-0.3-0.8-0.4-1.1-0.2c-0.1,0-0.2,0.1-0.3,0.1  c-0.2,0.1-0.4,0.2-0.6,0.5c-0.2,0.3-0.3,0.8-0.2,1.2C9.4,13.6,10.5,13.9,11.2,13.4z"></path>	<path class="st0" d="M12.3,11.3c0.1,0.2,0.3,0.3,0.5,0.4c0.2,0.1,0.4,0.2,0.6,0.2c0.1,0,0.3,0,0.4,0c0.2,0,0.5,0,0.7,0  c0.9-0.2,1.6-1.1,1.4-2.1c-0.1-1.1-1-1.8-2.1-1.8c-0.1,0-0.1,0-0.2,0c-0.1,0-0.2,0-0.2,0c-0.5,0-1,0.3-1.3,0.8  c-0.4,0.7-0.6,1.6,0,2.3C12.1,11.2,12.2,11.3,12.3,11.3z"></path>	<path class="st0" d="M28,19.3C28,19.3,28,19.3,28,19.3c-0.2,0-0.4,0-0.5,0.1c-0.6,0.4-1.2,0.5-1.8,0.6c-0.7,0.2-1.4,0.5-2,0.9  c-0.6,0.4-1.1,0.9-1.6,1.5h0c-0.6-1.6-2.4-3.9-2.6-4.1c0,0,0,0,0,0c1.4-0.3,2.3-1.8,2.5-2.2c0.2-0.4,0-0.6,0-0.6  c-0.3-0.2-0.8-0.2-1.1-0.2c-0.5-0.1-1-0.2-1.5-0.4c-0.6-0.2-1.3-0.4-2-0.4c-1.1,0-1.8,0.7-1.9,0.8c-1.2-0.4-2.3-0.3-2.3-0.3  c-0.5,0-1.1,0.1-1.6,0.2c-0.3-0.2-0.6-0.4-0.9-0.6l-1.7-1.3c-0.3-0.2-0.7-0.2-1-0.1c-0.1,0.1-0.2,0.1-0.3,0.2l-0.1,0.1  c-0.3,0.2-0.5,0.5-0.8,0.8c-0.1,0.1-0.1,0.2-0.2,0.2l0,0c-0.2,0.2-0.3,0.4-0.3,0.7c-0.1,0.4,0,0.9,0.4,1.2c0,0,0.3,0.3,0.6,0.5  c-0.3,0.2-0.6,0.5-0.8,0.8c-0.2,0.3-0.2,0.6-0.1,0.9c0,0-0.2,0.3-0.2,0.6c0,0.3,0.4,0.6,0.4,0.6c0.2,1.3,0.9,2.5,0.9,2.5  c2.2,3.2,4.5,4,4.7,4c0,0.1,0,0.2,0,0.3c0.1,0.2,0.2,0.5,0.4,0.6c0.6,0.6,1.6,1.2,1.6,1.2c0.3,0.2,0.6,0.7,0.6,0.7  c0.4,0.4,0.6,0.1,0.6,0.1c0.8-1.4,0.2-2.5,0.1-2.6v0c3.6,0,5.8-1.9,6-2.1h0c0,0.2,0.1,0.6,0.1,0.7c0.1,0.4,0.2,0.7,0.4,1.1  c0.2,0.3,0.5,0.9,0.7,1.1c0.5,0.7,1,1.4,1.5,2.4c0,0.1,0.2,0.2,0.3,0.2c0.2,0,0.3-0.2,0.3-0.2c2-2.5,0.8-5.3,0.7-5.5  c0.1,0,1-0.8,1.1-0.9c0.7-0.7,1.3-1.5,1.5-2.4C28.2,20.7,28.4,19.5,28,19.3z M6.9,15.3C7,15.1,7,15,7.1,14.9  c0.1-0.1,0.2-0.2,0.2-0.3C7.6,14.4,7.8,14.2,8,14l0.1-0.1c0,0,0.1-0.1,0.2-0.1c0,0,0.1,0,0.2,0l1.7,1.3c1,0.7,2.1,1.4,2.6,1.8  c0,0.1-0.1,0.1-0.1,0.1l-0.1,0.2l0.1,0.2c0.1,0.1,0.1,0.3,0.2,0.4c0.1,0.1,0.1,0.2,0.2,0.3l0.2,0.4c0.3,0.5,0.5,1,0.7,1.5  c-0.1-0.1-0.2-0.2-0.3-0.3L12,17.8l-0.3,0.4c-0.2,0.3-0.5,0.4-0.8,0.5c-0.2,0-0.5,0-0.9-0.3c-0.2-0.1-0.3-0.2-0.4-0.3  c-0.1-0.1-0.2-0.3-0.2-0.6c0-0.2,0.1-0.4,0.2-0.6l0-0.1c0.1-0.2,0.1-0.5,0-0.7c-0.1-0.2-0.3-0.4-0.7-0.4c0,0,0,0,0,0  c-0.4,0-0.6,0.1-0.8,0.2c-0.1,0-0.1,0.1-0.2,0.1c-0.1,0.1-0.3,0.1-0.4,0.2l-0.1,0.1c-0.1-0.1-0.3-0.2-0.4-0.3  C6.9,15.6,6.9,15.4,6.9,15.3z"></path></g><g>	<defs>		<rect id="SVGID_1_" width="80.5" height="70"></rect>	</defs>	<clipPath id="SVGID_2_">		<use xlink:href="#SVGID_1_" style="overflow:visible;"></use>	</clipPath>	<g class="st1">		<path class="st0" d="M43.1,11.5c0-0.5-0.1-1.1-0.2-1.6c-0.1-0.7-0.5-1.4-1.1-1.8c-0.1-0.1-0.3-0.2-0.4-0.3   c-0.1-0.1-0.3-0.2-0.5-0.3c-0.4-0.3-0.9-0.5-1.4-0.6c-0.4-0.1-0.8-0.1-1.1-0.1c-0.4,0-0.7,0-1.1,0.2C37,7,36.6,7,36.2,7.1   c-0.4,0.1-0.8,0.2-1.1,0.3c-0.2,0-0.4,0.1-0.6,0.3S34.2,8,34.2,8.2c0,0.2-0.1,0.4-0.1,0.6c0,0.2,0,0.4,0,0.6c0,0.2,0,0.4,0.1,0.6   c0,0.2,0,0.4,0,0.6c0,0.2,0,0.4,0,0.6v0.6c0,0.5,0.1,0.9,0.1,1.4c0,0.5,0,0.9,0,1.4c0,0.7,0,1.4,0,2c0,0.7,0,1.4,0,2.1   c0,0.3,0,0.5,0,0.7c0,0.2,0,0.4,0,0.6v0.6c0,0.5,0,1,0,1.5s0,0.9,0,1.4c0,0.1,0,0.2,0,0.3c0,0.1,0,0.2,0,0.3c0,0.3,0,0.6,0,0.8   c0,0.3,0,0.5,0,0.8c0,0.4,0,0.7,0,1.1c0,0.3,0,0.7,0,1.1c0,0.2,0,0.4,0.1,0.6c0,0.2,0.1,0.4,0.1,0.6c0.1,0.1,0.1,0.2,0.1,0.2   c0.2,0.1,0.3,0.2,0.5,0.2c0.2,0,0.3,0,0.5-0.1c0.1-0.1,0.2-0.1,0.3-0.1c0.1,0,0.2,0,0.3-0.1c0.3,0,0.5-0.3,0.6-0.6   c0-0.3,0-0.7,0.1-1.1c0-0.3,0-0.7,0-1.1c0-0.3,0-0.5,0-0.7c0-0.2,0-0.5,0-0.7c0-0.1,0-0.2,0-0.3c0-0.1,0-0.2,0-0.3   c0-0.3-0.1-0.5-0.1-0.7c0-0.2,0-0.4,0-0.7c0-0.4,0-0.8,0-1.2c0-0.4,0-0.8,0-1.2c0-0.3,0-0.5,0.2-0.6c0.1-0.1,0.3-0.3,0.6-0.4   c0.1-0.1,0.2-0.1,0.3-0.1c0.1,0,0.2,0,0.3,0c0.3,0,0.6-0.1,0.9-0.3c0.3-0.2,0.6-0.3,0.8-0.4c0.3-0.2,0.6-0.3,0.8-0.5   c0.7-0.6,1.2-1.2,1.6-2c0.1-0.2,0.2-0.5,0.3-0.7c0.1-0.3,0.2-0.5,0.3-0.8c0-0.3,0.1-0.5,0.1-0.8c0-0.3,0-0.5,0.1-0.7   C43.1,12.5,43.1,12,43.1,11.5z M37.7,7.3c0,0,0,0.1,0,0.2c0,0,0,0-0.1,0c0,0,0-0.1,0-0.1C37.6,7.4,37.6,7.4,37.7,7.3z M37,8.3   c0.1,0,0.1,0,0.1,0.1c0,0,0,0.1-0.1,0.1s-0.1,0-0.1-0.1C36.9,8.4,36.9,8.3,37,8.3z M36.2,12.5C36.2,12.6,36.2,12.6,36.2,12.5   C36.2,12.6,36.1,12.6,36.2,12.5c-0.2,0.1-0.2,0-0.2,0C36.1,12.5,36.1,12.5,36.2,12.5C36.2,12.5,36.2,12.5,36.2,12.5z M35.6,15.6   L35.6,15.6c-0.1-0.1,0-0.1,0-0.1C35.6,15.5,35.7,15.5,35.6,15.6C35.7,15.6,35.6,15.6,35.6,15.6z M36.3,24.8c0,0-0.1,0.1-0.1,0.1   c0,0-0.1,0-0.2,0.1C36,24.8,36.1,24.8,36.3,24.8L36.3,24.8z M40.4,13.5c-0.1,0.3-0.2,0.6-0.2,0.8c0,0.3-0.1,0.6-0.3,0.8   c-0.4,0.6-0.8,1-1.4,1.3c-0.4,0.2-0.8,0.3-1.1,0.2c-0.3-0.1-0.5-0.2-0.6-0.4c-0.1-0.2-0.2-0.5-0.2-0.7c0-0.1,0-0.2,0-0.3   c0-0.1,0-0.2,0-0.3c0-0.5,0-0.9,0-1.4c0-0.5,0-0.9,0-1.4c0-0.2,0-0.3,0-0.5c0-0.2,0-0.3,0-0.5c-0.1-0.5,0.2-0.9,0.8-1.3   c0.3-0.2,0.5-0.3,0.7-0.3c0.2,0,0.4,0,0.7,0c0.1,0,0.3,0.1,0.4,0.3c0.1,0.1,0.2,0.2,0.3,0.2c0.1,0,0.2,0.1,0.3,0.2   c0.2,0.2,0.3,0.4,0.4,0.6c0.1,0.2,0.1,0.5,0.2,0.8c0,0.3,0,0.6,0,0.9V13.5C40.4,13.4,40.4,13.4,40.4,13.5   C40.4,13.4,40.4,13.5,40.4,13.5z M41.4,12.8c-0.1,0-0.1,0-0.1-0.1c0,0,0-0.1,0.1-0.1c0,0,0,0,0.1,0c0,0,0.1,0,0.2,0   C41.5,12.8,41.5,12.8,41.4,12.8z M41.5,8.9L41.5,8.9c-0.1-0.1,0-0.1,0-0.1S41.6,8.8,41.5,8.9C41.6,8.9,41.6,8.9,41.5,8.9z"></path>		<path class="st0" d="M55.9,20.5c0-0.3,0-0.6,0-0.8c0-0.3,0-0.6,0-0.9c0-0.4,0-0.8,0-1.2c0-0.4,0-0.8,0-1.2c0-0.2,0-0.3,0-0.4   c0-0.1,0-0.3,0-0.5c0-0.6,0-1.1,0-1.6c0-0.5,0-1,0-1.6c0-0.1,0-0.3,0-0.4c0-0.1,0-0.3-0.1-0.4c0-0.4,0-0.8,0-1.2   c0-0.4,0-0.8,0-1.2c0-0.4-0.1-0.9-0.2-1.4c-0.1-0.6-0.4-1.1-0.8-1.4c-0.4-0.3-0.8-0.7-1.2-1C53.4,5.2,53.1,5,52.8,5   c-0.3,0-0.5-0.1-0.7-0.3c-0.1-0.1-0.2-0.1-0.3,0c-0.1,0-0.3,0-0.4,0c-0.1,0-0.3,0-0.4,0c-0.2,0.1-0.3,0.1-0.4,0.1   c-0.1,0-0.3,0-0.4,0.1c-0.6,0.2-1.2,0.4-1.7,0.8c-0.5,0.3-1,0.8-1.4,1.3c-0.1,0.1-0.2,0.3-0.3,0.4c-0.1,0.2-0.2,0.3-0.3,0.5   c-0.3,0.5-0.6,1-0.7,1.5c-0.2,0.5-0.2,1-0.2,1.6c0,0.3,0,0.6,0.1,0.9c0,0.3,0,0.6,0,0.9c0,0.1,0,0.1,0,0.2c0,0.1,0,0.1,0,0.2   c0,0.3,0,0.5,0,0.7c0,0.2,0,0.5,0,0.7c0,0.3-0.1,0.6-0.1,0.9v0.8c0,0.4,0.1,0.7,0.1,1.1c0.1,0.3,0.1,0.7,0,1c0,0.3,0,0.5,0,0.8   c0,0.3,0,0.5,0,0.7c0,0.3,0,0.6,0,0.9c0,0.3,0,0.6,0,0.7c0,0.6,0,1.2,0,1.6s0.1,0.9,0.3,1.3l0.1,0.1c0,0.2,0,0.3,0.1,0.4   c0.1,0.1,0.2,0.2,0.3,0.3c0.3,0.2,0.5,0.4,0.8,0.6c0.3,0.2,0.6,0.3,0.9,0.4c1.2,0.5,2.5,0.5,3.7-0.1c0.2-0.1,0.3-0.2,0.6-0.3   c0.2-0.1,0.3-0.3,0.6-0.4c0.4-0.3,0.8-0.6,1.1-0.9c0.3-0.3,0.6-0.7,0.8-1.2c0.1-0.3,0.2-0.6,0.3-0.9c0.1-0.3,0.2-0.6,0.3-0.9   c0.1-0.2,0.1-0.4,0.2-0.6C55.9,20.9,55.9,20.7,55.9,20.5z M46.4,9.4c0-0.1,0-0.1,0.1-0.1c0,0,0,0,0,0.1   C46.6,9.4,46.5,9.5,46.4,9.4C46.4,9.5,46.4,9.4,46.4,9.4z M46.6,24c-0.1,0-0.2,0-0.3,0c0.2-0.1,0.3-0.2,0.5-0.2   C46.7,23.9,46.6,23.9,46.6,24z M48.5,7.9C48.6,8,48.6,8,48.5,7.9c0.1,0.2,0,0.2,0,0.2c0,0-0.1-0.1-0.1-0.1C48.4,8,48.5,8,48.5,7.9   z M47.8,16.9C47.8,17,47.8,17,47.8,16.9c0,0.2,0,0.2,0,0.3c0,0-0.1,0-0.1-0.1S47.7,17,47.8,16.9C47.8,16.9,47.8,16.9,47.8,16.9z    M47.7,11.7C47.7,11.7,47.7,11.7,47.7,11.7c0.2,0.1,0.1,0.1,0,0.2c0,0-0.1,0-0.1,0C47.6,11.7,47.6,11.7,47.7,11.7z M47.6,18.6   C47.6,18.6,47.6,18.6,47.6,18.6c0,0,0.1,0.1,0.3,0.2c-0.1,0-0.2,0-0.3,0C47.6,18.7,47.6,18.6,47.6,18.6   C47.6,18.6,47.6,18.6,47.6,18.6z M47.4,10.7c0,0,0,0.1,0.1,0.2c0,0.1,0,0.1-0.1,0.2C47.4,10.9,47.4,10.8,47.4,10.7z M53.3,13.1   c0,0.4,0,0.8,0,1.2c0,0.4,0,0.8,0,1.2c0,0.6,0,1.1,0,1.7c0,0.6,0,1.1-0.1,1.7v0.5c0,0.1,0,0.2,0,0.2c0,0.4,0,0.8,0,1.2   c0,0.4,0,0.8,0,1.2c0,0.3-0.1,0.5-0.2,0.7c-0.1,0.2-0.3,0.4-0.5,0.6c-0.1,0-0.1,0.1-0.2,0.2c0,0.1-0.1,0.1-0.2,0.2   c-0.4,0.4-0.8,0.6-1.3,0.6c-0.5,0-1,0-1.4-0.2c-0.4-0.2-0.7-0.5-0.9-1c-0.1-0.2-0.1-0.4-0.1-0.6c0-0.6,0-1.1-0.1-1.6   c0-0.5,0-1,0.1-1.6c0.1-0.5,0-1.1-0.1-1.6c0-0.3,0-0.6,0-0.9c0-0.3,0-0.6,0-0.9c0-0.3,0-0.5,0.1-0.8c0-0.3,0-0.6,0-0.8   c0-0.3,0-0.6,0-1c0-0.3,0-0.7,0-1c0-0.2,0-0.4,0-0.6v-0.6c0-0.3,0-0.5,0-0.8c0-0.3,0-0.5,0.1-0.8c0.1-0.3,0.3-0.7,0.6-1   c0.2-0.2,0.3-0.3,0.5-0.5c0.2-0.2,0.4-0.3,0.6-0.3c0.1,0,0.3-0.1,0.4-0.1c0.1,0,0.3-0.1,0.4-0.1c0.1,0,0.3,0,0.4,0   c0.1,0,0.3,0,0.4,0c0.8,0.3,1.3,0.9,1.4,1.8c0,0.2,0.1,0.4,0.1,0.7c0,0.2,0,0.4,0,0.6V11c-0.1,0.3-0.1,0.5,0,0.8   c0,0.3,0.1,0.5,0.1,0.8c0,0.1,0,0.2,0,0.3C53.4,12.8,53.4,12.9,53.3,13.1z M55,12.5c-0.1,0-0.2,0.1-0.2,0.3c0-0.2,0-0.4,0-0.4   c0-0.1,0.2-0.1,0.4-0.1C55.1,12.4,55.1,12.5,55,12.5z M55.1,20.8c0,0,0-0.1,0-0.1c0,0,0-0.1,0.1-0.1c0,0,0.1,0,0.1,0.1   C55.2,20.8,55.1,20.8,55.1,20.8z M55.3,13.6C55.3,13.6,55.2,13.6,55.3,13.6c-0.1-0.1,0-0.2,0-0.2C55.4,13.5,55.4,13.5,55.3,13.6   C55.4,13.6,55.4,13.6,55.3,13.6z"></path>		<path class="st0" d="M68.9,22.4c0,0-0.1-0.1-0.1-0.1c0,0,0-0.1-0.1-0.1c-0.1-0.3-0.2-0.5-0.3-0.7c-0.1-0.2-0.2-0.4-0.3-0.7   c0-0.2-0.1-0.3-0.2-0.5c0-0.2-0.1-0.3-0.2-0.4c-0.1-0.2-0.2-0.3-0.3-0.5c-0.1-0.2-0.1-0.4-0.2-0.6c0-0.1,0-0.2-0.1-0.3   c0-0.1-0.1-0.2-0.1-0.3c-0.2-0.3-0.3-0.6-0.5-0.9c-0.1-0.3-0.3-0.6-0.3-1c-0.1-0.5-0.3-1-0.4-1.5s-0.4-0.9-0.7-1.3   c-0.3-0.4-0.5-0.9-0.6-1.5c0-0.3,0-0.6,0.1-1c0.1-0.3,0.3-0.6,0.4-1c0.1-0.3,0.3-0.5,0.4-0.8c0.1-0.3,0.2-0.6,0.3-0.9   C65.9,8.3,66,8.1,66,8c0-0.1,0-0.3,0.1-0.3c0.2-0.6,0.3-1.3,0.4-2c0.1-0.7,0.2-1.4,0.2-2.1c0-0.1,0-0.1,0-0.2c0-0.1,0-0.2,0-0.3   c0-0.1,0-0.1,0-0.2c0-0.1,0-0.1,0-0.2c-0.1-0.4-0.3-0.6-0.7-0.5c-0.2,0-0.3,0-0.5,0c-0.2,0-0.3,0-0.5,0.1   c-0.3,0.1-0.5,0.2-0.6,0.3c-0.1,0.1-0.2,0.3-0.3,0.6c0,0,0,0.1,0,0.1c0,0,0,0.1,0,0.1c0,0.3,0,0.5,0,0.8C64,4.6,64,4.8,64,5.1   c0,0.6-0.1,1.1-0.3,1.5c-0.2,0.5-0.3,0.9-0.5,1.4c-0.1,0.4-0.3,0.9-0.4,1.4c0,0.1-0.1,0.3-0.2,0.5c-0.1,0.2-0.2,0.3-0.4,0.3   c-0.2,0-0.3,0-0.3-0.2c0-0.1-0.1-0.3-0.1-0.4c0,0,0-0.1,0-0.1c0-0.3,0-0.5,0-0.8c0-0.3,0-0.6-0.1-0.8c0-0.1,0-0.2,0-0.3   c0.1-0.3,0.1-0.7,0.1-1.1c0-0.3,0-0.7,0-1.1c0-0.2,0-0.4,0-0.6c0-0.2,0-0.4,0-0.6c0-0.2,0-0.5-0.1-0.7c-0.1-0.3-0.3-0.4-0.5-0.4   c-0.2,0-0.5,0-0.7,0s-0.4,0.1-0.6,0.2c-0.3,0.1-0.5,0.2-0.6,0.4C59.1,3.7,59,3.9,59,4.2v1.2c0,0.3,0,0.6,0.1,0.9   c0,0.4,0,0.7,0,1.1c0,0.3,0,0.7,0.1,1c0,0.1,0,0.3,0,0.4c-0.1,0.3,0,0.6,0,0.9c0,0.1,0,0.3,0,0.4c0,0.1,0,0.3,0,0.4   c0,0.3-0.1,0.5-0.1,0.8v1.2c0,0.1,0,0.3,0,0.4c0,0.3,0,0.5,0,0.7c0,0.2,0,0.5,0,0.7c0,0.4,0,0.9,0.1,1.3c0,0.4,0,0.9,0,1.4   c0,0.6,0,1.2,0,1.9c0,0.6,0,1.2,0,1.9c0,0.2,0,0.3-0.1,0.5c0,0.2,0,0.3,0,0.5c0.1,0.8,0.1,1.5,0,2.3c0,0.2,0,0.5,0.1,0.7   c0.1,0.3,0.2,0.4,0.5,0.4c0.3,0,0.5,0,0.8,0c0.3-0.1,0.5-0.1,0.8-0.2c0.1,0,0.2-0.1,0.3-0.2c0.1-0.2,0.2-0.4,0.3-0.6   c0-0.2,0-0.4,0-0.6c0-0.2-0.1-0.4-0.1-0.6c0-0.2,0-0.4,0-0.7c0.1-0.3,0.1-0.7,0-1c-0.1-0.3-0.1-0.5-0.1-0.8c0-0.3,0-0.5,0.1-0.8   c0-0.2,0-0.4,0-0.6c0-0.2,0-0.4,0-0.7c0-0.3,0-0.6,0-1c0-0.3,0-0.6,0-1c0-0.1,0-0.2,0-0.3c0-0.1,0-0.2,0-0.3c0-0.1,0-0.3,0-0.3   c0,0,0.1-0.1,0.3-0.2c0.1,0,0.1,0,0.2-0.1c0.1,0,0.2,0,0.2,0c0.1,0.1,0.2,0.2,0.3,0.3c0.1,0.1,0.2,0.2,0.2,0.3   c0.3,0.4,0.5,0.9,0.7,1.4c0.2,0.5,0.4,1,0.5,1.5c0.1,0.4,0.3,0.7,0.5,1.1c0.2,0.3,0.3,0.6,0.5,0.9c0.2,0.3,0.3,0.7,0.4,1.1   c0.1,0.3,0.2,0.6,0.3,0.9c0.1,0.3,0.2,0.6,0.4,0.9c0.2,0.3,0.4,0.4,0.6,0.3c0.3,0,0.5-0.1,0.7-0.1c0.3,0,0.5,0,0.7-0.1   c0.1,0,0.2-0.1,0.3-0.1c0.1,0,0.1,0,0.2-0.1c0.1-0.1,0.2-0.3,0.2-0.6C69.1,22.7,69,22.5,68.9,22.4z M59.8,20.5c0,0,0,0.1,0,0.1   c0,0,0,0.1,0,0.1v0c0,0-0.1,0-0.1-0.1C59.7,20.6,59.7,20.6,59.8,20.5z M60,24.7L60,24.7c0.1-0.1,0.3-0.1,0.4-0.2c0,0,0,0,0.1,0   C60.2,24.7,60.1,24.8,60,24.7z M61,23.4C61,23.4,61,23.4,61,23.4c-0.1,0-0.2,0-0.2,0C60.9,23.3,60.9,23.3,61,23.4   C61,23.3,61.1,23.3,61,23.4z M61.1,17.7C61,17.7,61,17.7,61.1,17.7c-0.1-0.2,0-0.2,0-0.2c0,0,0,0,0.1,0   C61.2,17.6,61.2,17.7,61.1,17.7z M61.3,10.4c0-0.1,0-0.1,0-0.2c0.1,0,0.1,0,0.1,0C61.5,10.4,61.4,10.4,61.3,10.4z M64.6,4.2   C64.6,4.2,64.6,4.2,64.6,4.2c0,0.1,0,0.1,0,0.1l0,0c0,0,0,0,0,0L64.6,4.2C64.5,4.2,64.5,4.2,64.6,4.2z M64.4,6.5   C64.4,6.5,64.4,6.5,64.4,6.5c0-0.1,0-0.2,0-0.2h0.1C64.5,6.4,64.5,6.5,64.4,6.5z M64.7,18C64.6,18,64.6,18,64.7,18   c-0.1-0.1-0.1-0.1-0.1-0.1c0,0,0.1-0.1,0.1-0.1c0,0,0.1,0.1,0.1,0.1C64.7,18,64.7,18,64.7,18z M66.7,21.5c-0.1,0-0.2-0.1-0.2-0.2   c0-0.1,0-0.1,0.1,0c0.1,0,0.2,0.1,0.2,0.1C66.8,21.4,66.8,21.5,66.7,21.5z"></path>		<path class="st0" d="M80.1,20.5c0-0.2,0-0.3,0-0.5c0-0.3,0-0.4-0.1-0.5c0-0.1-0.2-0.1-0.4-0.2c-0.2,0-0.4,0-0.7,0.1   c-0.1,0-0.2,0-0.3,0c-0.1,0-0.2,0-0.3,0c-0.2,0-0.3,0-0.5,0c-0.2,0-0.3,0-0.5,0.1c-0.3,0-0.5,0.1-0.7,0.1c-0.2,0-0.4,0.1-0.7,0.1   c-0.3,0-0.7,0-1.1,0c-0.3,0-0.5-0.2-0.7-0.5c-0.1-0.3-0.2-0.5-0.2-0.8c0-0.3,0-0.6,0-0.8c0-0.3,0-0.5,0-0.7c0-0.2,0-0.4,0-0.6v-1   c0-0.3,0-0.7,0-1c0-0.1,0-0.1,0-0.1c0.3-0.8,0.8-1.2,1.4-1.4c0.1,0,0.2,0,0.3-0.1c0.1,0,0.2,0,0.3,0c0.2,0,0.4,0,0.6-0.1   c0.2,0,0.4-0.1,0.6-0.1c0.2,0,0.3-0.1,0.4-0.2c0.1-0.1,0.2-0.3,0.2-0.5c0.1-0.3,0.1-0.5,0-0.8c0-0.3-0.1-0.5,0-0.8   c0-0.2,0-0.3-0.3-0.3c-0.2,0-0.3-0.1-0.5-0.1c-0.2,0-0.3,0-0.6,0.1C76.2,10,76.1,10,76,10c-0.1,0-0.2,0-0.3,0   c-0.1,0-0.2,0.1-0.3,0.1c-0.2,0.1-0.3,0.1-0.5,0.1c-0.2,0-0.3,0-0.5,0c-0.1,0-0.2,0-0.2-0.1C74,10,73.9,9.8,73.9,9.7   c0-0.1-0.1-0.3-0.1-0.4c0-0.4,0-0.8,0-1.2c0-0.4,0-0.8,0-1.2c0-0.4,0-0.8,0-1.2c0-0.4,0-0.7,0-1.2c0-0.5,0.3-0.9,0.6-1.1   c0.2-0.1,0.4-0.2,0.7-0.3c0.2-0.1,0.4-0.1,0.7-0.1c0.3,0,0.5,0,0.8,0s0.5-0.1,0.8-0.2c0.3-0.1,0.5-0.1,0.8-0.1   c0.3,0,0.5-0.1,0.8-0.1c0.4-0.1,0.8-0.3,1.1-0.5c0.1,0,0.1-0.2,0.1-0.3c0-0.2,0-0.3,0-0.5c0-0.2,0-0.3,0-0.5c0-0.2,0-0.3,0-0.5   c0-0.1-0.1-0.3-0.3-0.3c-0.1,0-0.3,0-0.4-0.1c-0.1,0-0.3,0-0.4,0c-0.5,0.1-0.9,0.1-1.4,0.2c-0.5,0.1-0.9,0.2-1.4,0.3   c-0.5,0.1-0.9,0.2-1.4,0.3c-0.5,0-0.9,0.1-1.4,0.1c-0.2,0-0.4,0-0.6,0.1c-0.2,0.1-0.4,0.1-0.6,0.1c0,0-0.1,0-0.2,0.1   c-0.7,0.4-1,0.9-0.9,1.6c0,0.3,0,0.6,0,0.9c0,0.3-0.1,0.5-0.1,0.8c0,0.3,0,0.5,0.1,0.7c0,0.2,0,0.3,0,0.5c0,0.2,0,0.3,0,0.5   c0,0.2,0.1,0.3,0.1,0.5v0.5c0,0.1,0,0.2,0,0.3c0,0.1,0,0.2,0,0.2c0,0.4,0,0.8,0,1.1s0,0.7-0.1,1.1v0.1c0,0.4,0,0.7,0,1.1   c0,0.3,0,0.7,0,1.1c0,0,0,0,0,0c0,0.3,0,0.6,0,0.8c0,0.3,0,0.5,0,0.8c0,0.1,0,0.3,0,0.3c0,0.1,0.1,0.2,0.1,0.3c0,0.3,0,0.6,0,1   c0,0.3,0,0.6,0,1c0,0.4,0,0.8-0.1,1.2c0,0.4,0,0.8,0,1.2c0,0.2,0,0.5,0,0.7c0,0.2,0,0.4,0,0.7v0.6c0,0.2,0,0.4,0.1,0.6   c0,0.1,0,0.2,0,0.3c-0.1,0.6,0.1,0.9,0.6,1.1c0.1,0,0.3,0,0.4,0.1c0.1,0,0.3,0,0.4,0c0.2,0,0.3,0,0.4-0.1c0.1,0,0.3-0.1,0.4-0.1   c0.6-0.1,1.2-0.2,1.8-0.3c0.6-0.1,1.2-0.2,1.8-0.3v0c0.2,0,0.4,0,0.6-0.1c0.2,0,0.4,0,0.6-0.1c0.2,0,0.4-0.1,0.6-0.1   c0.2,0,0.4-0.1,0.6-0.2c0.2-0.1,0.3-0.2,0.4-0.3c0.1-0.1,0.1-0.3,0.1-0.5C80.2,20.9,80.2,20.7,80.1,20.5z M76.7,12   c0.2-0.1,0.3-0.1,0.4-0.1C77,12.1,76.9,12.1,76.7,12z M78.7,0.9C78.7,0.8,78.7,0.8,78.7,0.9c0.1-0.1,0.1-0.1,0.2,0   C78.8,0.9,78.8,0.9,78.7,0.9L78.7,0.9z M78.4,2.1c0,0,0.1,0,0.1,0c0.1,0,0.1,0,0.2,0c0,0-0.1,0.1-0.1,0.1c0,0,0,0.1-0.1,0.1   C78.4,2.4,78.3,2.3,78.4,2.1C78.3,2.1,78.3,2.1,78.4,2.1z M71.8,16.5C71.8,16.5,71.8,16.5,71.8,16.5c-0.1-0.2,0-0.3,0-0.3   c0.1,0,0.1,0,0.1,0.1C72,16.4,71.9,16.5,71.8,16.5z"></path>		<path class="st0" d="M37.4,63.4c-0.1-0.1-0.2-0.1-0.3,0c-0.3,0.2-0.5,0.3-0.8,0.3c-0.3,0-0.6,0.1-0.8,0.2   c-0.3,0.1-0.4,0.3-0.5,0.5c-0.1,0.3-0.2,0.6-0.3,0.8c-0.2,0.3-0.3,0.5-0.5,0.7c-0.6,0.8-1.3,1.2-2.1,1.2l-0.8,0   c-0.2,0-0.4,0-0.6-0.1c-0.4-0.3-0.7-0.6-0.9-0.9c-0.3-0.4-0.4-0.8-0.4-1.3c0-0.6-0.1-1.2-0.1-1.8c0-0.6,0-1.2-0.2-1.8   c0-0.1,0-0.3,0-0.5c0-0.6,0-1.3,0.1-2c0-0.6,0-1.3,0-2c0-1.5-0.1-2.9-0.1-4.4s0-2.9,0.2-4.4c0-0.4,0-0.8,0-1.2   c0-0.4,0-0.8-0.1-1.2c-0.2-0.9-0.2-1.8,0-2.8c0.1-0.5,0.1-0.9,0.1-1.5c0-0.5,0-1-0.1-1.5c0-0.3-0.2-0.5-0.5-0.5   c-0.6,0-1.1,0.1-1.6,0.3c-0.3,0.1-0.4,0.3-0.4,0.6c0,0.2,0,0.3,0,0.5c0,0.2,0,0.3,0,0.5c0,1.2-0.1,2.4-0.1,3.5c0,1.2,0,2.3,0,3.5   c0,0.3,0,0.6-0.1,0.7c-0.1,0.1-0.3,0.3-0.6,0.3c-0.4,0.1-0.8,0.3-1.3,0.3c-0.4,0.1-0.8,0.2-1.2,0.3c-0.4,0.1-0.8,0.1-1,0   c-0.3,0-0.5-0.1-0.5-0.2c0-0.1-0.1-0.3-0.2-0.6V49c0-0.4-0.1-0.9-0.1-1.3c0-0.4,0-0.9-0.1-1.3c-0.1-0.5-0.2-1-0.3-1.5   c-0.1-0.5-0.3-0.9-0.5-1.4c-0.2-0.4-0.5-0.9-0.7-1.3S19.3,41.3,19,41c-1.5-1.8-3.4-2.9-5.6-3.4c-0.5-0.1-0.9-0.2-1.4-0.2   c-0.5,0-0.9,0-1.5,0.1L9,37.6c-0.3,0.1-0.6,0.2-0.8,0.2c-0.3,0.1-0.6,0.2-0.8,0.3c-0.5,0.2-0.9,0.5-1.4,0.8   c-0.4,0.3-0.8,0.6-1.2,0.9c-0.8,0.6-1.5,1.3-2,2.1c-0.6,0.8-1.1,1.6-1.4,2.5c-0.1,0.3-0.3,0.6-0.4,0.9c-0.1,0.3-0.3,0.6-0.4,0.9   c-0.1,0.2-0.2,0.4-0.3,0.6c-0.1,0.2,0,0.4,0,0.6v0.2c-0.1,0.7-0.1,1.3,0,1.9c0.1,0.6,0.2,1.2,0.4,1.8c0.3,0.9,0.7,1.6,1.2,2.3   c0.6,0.6,1.2,1.2,2,1.6c0.5,0.3,1,0.6,1.5,0.7c0.5,0.2,1.1,0.3,1.7,0.3c0.5,0,0.9-0.1,1.4-0.2c0.5-0.1,0.9-0.2,1.4-0.3   c0,0,0,0,0.1,0c0,0,0,0,0.1,0c0.2-0.3,0.5-0.4,0.8-0.6c0.3-0.1,0.5-0.3,0.8-0.4c0.5-0.3,1-0.6,1.4-1c0.3-0.3,0.6-0.6,0.7-1   c0.1-0.1,0.1-0.3,0.2-0.4c0,0,0-0.1,0-0.1s0,0,0,0c0,0,0,0,0-0.1c0.5-1.1,0.8-2.3,1-3.5c0.1-0.8,0-1.5-0.2-2.1   c-0.2-0.6-0.5-1.2-0.9-1.7c0,0-0.1-0.1-0.1-0.1c0,0-0.1-0.1-0.1-0.1c-0.6-0.5-1.2-0.9-2-1c-0.7-0.2-1.4-0.3-2.3-0.3   c-0.2,0-0.4,0.1-0.5,0.4c-0.1,0.2-0.1,0.3-0.2,0.4c0,0.3,0,0.6,0,0.9c0,0.3,0.1,0.6,0.2,0.8c0,0.2,0.1,0.3,0.3,0.3   c0.3,0,0.5,0,0.7,0.1c0.2,0.1,0.4,0.1,0.6,0.2c0.6,0.1,1,0.5,1.3,1.1c0.1,0.2,0.1,0.3,0.2,0.5c0,0.2,0.1,0.3,0.2,0.5   c0.2,0.3,0.2,0.6,0.1,1.1c-0.1,0.6-0.3,1.2-0.6,1.8c-0.3,0.5-0.7,1-1.2,1.4c-0.1,0-0.1,0.1-0.2,0.1c-0.1,0-0.2,0.1-0.2,0.1   c-0.4,0.3-0.7,0.5-1.1,0.6c-0.4,0.1-0.7,0.1-1.1,0.1c-0.7-0.1-1.4-0.2-2-0.5C5.1,53,4.5,52.7,4,52.3C3.5,52,3.2,51.5,3.1,51   c0-0.2-0.1-0.4-0.2-0.6c-0.1-0.2-0.1-0.4-0.2-0.6c-0.1-0.3-0.1-0.7,0-1.1c0-0.5,0.1-1,0.3-1.5c0.1-0.5,0.3-1,0.4-1.5   c0-0.1,0.1-0.2,0.2-0.3c0-0.1,0.1-0.2,0.2-0.3c0.3-0.3,0.5-0.6,0.8-1c0.3-0.3,0.6-0.6,0.8-0.9c0.8-0.8,1.7-1.5,2.6-1.8   c0.3-0.1,0.5-0.2,0.7-0.3c0.2-0.1,0.5-0.2,0.7-0.3c0.3-0.1,0.6-0.2,0.9-0.3c0.3,0,0.6-0.1,0.9-0.1c0.6,0,1.3,0.1,1.9,0.3   c0.6,0.1,1.1,0.4,1.7,0.8c0.1,0.1,0.2,0.1,0.3,0.2c0.4,0.2,0.7,0.4,1,0.6c0.3,0.2,0.6,0.5,0.9,0.7c0.3,0.2,0.5,0.5,0.7,0.7   c0.2,0.3,0.3,0.6,0.5,0.9c0.3,0.7,0.4,1.5,0.6,2.2c0.1,0.8,0.2,1.5,0.2,2.4c0,1,0,2.1,0,3.1s0,2.1,0,3.1c0,0.8,0,1.6,0,2.4   c0,0.8,0,1.6-0.1,2.4c-0.1,0.5-0.1,0.9-0.1,1.4c0,0.6,0.2,0.9,0.7,1c0.2,0.1,0.4,0.1,0.6,0.1c0.2,0,0.4-0.1,0.7-0.2   c0.3-0.1,0.5-0.3,0.6-0.3c0.1-0.1,0.1-0.3,0.1-0.6V58h0v-3.5c0-0.2,0-0.3,0-0.5c0.1-0.6,0.4-0.9,1-1.1c0.1,0,0.2-0.1,0.3-0.1   c0.1,0,0.2,0,0.3-0.1c0.4-0.1,0.8-0.2,1.2-0.3c0.4-0.1,0.8-0.1,1.2-0.2c0.4-0.1,0.7,0.1,0.8,0.6c0,0.1,0.1,0.2,0.1,0.4v0.4   c0,0.6,0,1.2,0,1.9c0,0.6,0,1.3-0.1,1.9c0,0.3,0,0.5,0,0.7c0,0.2,0.1,0.5,0.1,0.7v0.7c0,0.2,0,0.4,0,0.6c0,0.2,0,0.4,0,0.6   c0,0.6-0.1,1.1-0.1,1.7c0,0.6,0,1.1-0.1,1.7c0,0.6,0,1.1,0,1.7c0.1,0.6,0.2,1,0.4,1.5c0.4,0.8,0.9,1.5,1.6,2   c0.6,0.5,1.5,0.8,2.5,0.8c0.6,0,1.3-0.1,2-0.3c0.8-0.3,1.4-0.6,2-1c0.6-0.4,1-0.9,1.4-1.4c0.4-0.5,0.6-1.1,0.8-1.7   c0.2-0.6,0.3-1.2,0.4-1.8C37.6,63.6,37.5,63.5,37.4,63.4z M1.4,45.9C1.4,46,1.4,45.9,1.4,45.9c-0.1-0.1,0-0.2,0-0.2   c0.1,0,0.1,0,0.1,0C1.5,45.9,1.4,45.9,1.4,45.9z M12.9,47.9L12.9,47.9c0.1,0,0.1,0,0.1,0c0,0.1,0,0.2,0,0.3h0   c-0.1,0-0.2,0-0.2-0.1C12.8,48,12.8,48,12.9,47.9z M12.5,52.6c0.1,0,0.2,0,0.2,0c0,0,0,0-0.1,0.1C12.6,52.6,12.6,52.7,12.5,52.6   L12.5,52.6C12.5,52.7,12.5,52.7,12.5,52.6C12.4,52.7,12.4,52.7,12.5,52.6C12.4,52.6,12.4,52.6,12.5,52.6z M6.6,55.9   c0,0,0-0.1,0-0.1c0.1,0,0.3,0,0.3,0c0,0-0.1,0.1-0.1,0.1c0,0-0.1,0.1-0.2,0.1C6.6,56,6.5,55.9,6.6,55.9z M2.8,51.8   c0.1,0,0.2,0,0.2,0.1v0.3c0,0,0,0,0,0c0,0,0-0.1-0.1-0.1s0-0.1-0.1-0.1C2.8,51.9,2.8,51.8,2.8,51.8z M2.7,42.9   c0-0.1,0.1-0.2,0.1-0.3c0-0.1,0.1-0.1,0.2-0.1C2.9,42.6,2.8,42.8,2.7,42.9C2.7,42.8,2.7,42.8,2.7,42.9z M6.1,40.6   C6.1,40.7,6,40.7,6.1,40.6c-0.1,0.1-0.2,0.1-0.2,0C5.9,40.6,5.9,40.5,6.1,40.6C6.1,40.5,6.1,40.5,6.1,40.6z M9.9,39.9   C9.8,39.9,9.8,39.9,9.9,39.9c-0.1-0.1,0-0.1,0-0.1C9.9,39.8,9.9,39.8,9.9,39.9C9.9,39.9,9.9,39.9,9.9,39.9z M12.6,40   c0,0-0.1,0-0.1,0c0,0,0,0,0-0.1C12.6,39.8,12.6,39.8,12.6,40z M14.3,40.4C14.3,40.4,14.3,40.4,14.3,40.4c-0.2,0-0.2,0-0.2-0.1   c0,0,0-0.1,0-0.1c0,0,0.1,0,0.1,0l0,0C14.4,40.3,14.4,40.4,14.3,40.4z M19.2,42.5C19.2,42.5,19.2,42.5,19.2,42.5l0-0.2   c0,0,0,0,0,0S19.3,42.3,19.2,42.5C19.3,42.5,19.3,42.5,19.2,42.5z M20.1,61.9c0,0,0,0.1,0,0.1s0,0.1-0.1,0.1s-0.1,0-0.1,0   c0,0,0,0,0,0c0-0.1,0-0.2,0-0.2c0-0.1,0-0.1,0.2-0.2c0,0,0,0,0.1,0.1C20.1,61.8,20.1,61.8,20.1,61.9z M20.4,60.7   c0,0-0.1,0.1-0.2,0.1c0,0-0.1,0-0.1-0.1C20.2,60.6,20.2,60.6,20.4,60.7C20.4,60.6,20.4,60.6,20.4,60.7z M20.7,53.3   C20.7,53.3,20.6,53.2,20.7,53.3c0-0.2,0-0.2,0.1-0.2c0,0,0,0,0,0s0,0,0,0C20.9,53.2,20.9,53.3,20.7,53.3z M21.5,50.7   C21.5,50.7,21.4,50.7,21.5,50.7c-0.1-0.1-0.1-0.2-0.2-0.2C21.5,50.4,21.6,50.5,21.5,50.7C21.6,50.7,21.5,50.7,21.5,50.7z M21.8,51   C21.7,51,21.7,50.9,21.8,51c-0.1,0-0.1,0-0.1-0.1c0-0.1,0.1-0.1,0.1-0.1s0.1,0,0.1,0.1C21.9,50.9,21.8,51,21.8,51z M26.9,52.6   C26.9,52.6,26.9,52.6,26.9,52.6c0-0.1,0-0.1,0-0.2c0,0,0-0.1,0.1-0.1v0c0,0,0,0,0,0.1C27.1,52.5,27,52.6,26.9,52.6z M28,62.3   c-0.1,0-0.1,0-0.1-0.1c0-0.1,0-0.1,0.1-0.1c0.1,0,0.1,0,0.1,0.1C28.1,62.2,28.1,62.3,28,62.3z M28.4,55.5   C28.4,55.5,28.3,55.5,28.4,55.5c-0.1-0.1,0-0.1,0-0.2C28.5,55.3,28.5,55.3,28.4,55.5L28.4,55.5z M30.5,69.4c-0.1,0-0.2,0.1-0.3,0   c-0.1,0-0.1-0.1-0.1-0.2C30.2,69.2,30.4,69.2,30.5,69.4C30.5,69.3,30.5,69.3,30.5,69.4z M35.3,67.7c-0.1,0.1-0.2,0.2-0.3,0.2   c0-0.1,0.1-0.1,0.1-0.2c0.1,0,0.2-0.1,0.3-0.2C35.4,67.6,35.3,67.6,35.3,67.7z M36.7,64.3c0,0,0.1,0,0.1,0c0,0,0.1,0.1,0.1,0.2   C36.8,64.4,36.7,64.3,36.7,64.3z"></path>		<path class="st0" d="M42.7,53.5c0-0.3,0-0.6,0-0.8c0-0.3,0-0.6,0-0.9c0-0.4,0-0.8,0-1.2c0-0.4,0-0.8,0-1.2c0-0.2,0-0.3,0-0.4   c0-0.1,0-0.3,0-0.5c0-0.6,0-1.1,0-1.6c0-0.5,0-1,0-1.6c0-0.1,0-0.3,0-0.4c0-0.1,0-0.3-0.1-0.4c0-0.4,0-0.8,0-1.2   c0-0.4,0-0.8,0-1.2c0-0.4-0.1-0.9-0.2-1.4c-0.1-0.6-0.4-1.1-0.8-1.4c-0.4-0.3-0.8-0.7-1.2-1c-0.2-0.1-0.5-0.3-0.7-0.3   c-0.3,0-0.5-0.1-0.7-0.3c-0.1-0.1-0.2-0.1-0.3,0c-0.1,0-0.3,0-0.4,0c-0.1,0-0.3,0-0.4,0c-0.2,0.1-0.3,0.1-0.4,0.1   c-0.1,0-0.3,0-0.4,0.1c-0.6,0.2-1.2,0.4-1.7,0.8c-0.5,0.3-1,0.8-1.4,1.3c-0.1,0.1-0.2,0.3-0.3,0.4c-0.1,0.2-0.2,0.3-0.3,0.5   c-0.3,0.5-0.6,1-0.7,1.5c-0.2,0.5-0.2,1-0.2,1.6c0,0.3,0,0.6,0.1,0.9c0,0.3,0,0.6,0,0.9c0,0.1,0,0.1,0,0.2c0,0.1,0,0.1,0,0.2   c0,0.3,0,0.5,0,0.7c0,0.2,0,0.5,0,0.7c0,0.3-0.1,0.6-0.1,0.9v0.8c0,0.4,0.1,0.7,0.1,1.1c0.1,0.3,0.1,0.7,0,1c0,0.3,0,0.5,0,0.8   s0,0.5,0,0.7c0,0.3,0,0.6,0,0.9c0,0.3,0,0.6,0,0.7c0,0.6,0,1.2,0,1.6c0,0.5,0.1,0.9,0.3,1.3l0.1,0.1c0,0.2,0,0.3,0.1,0.4   c0.1,0.1,0.2,0.2,0.3,0.3c0.3,0.2,0.5,0.4,0.8,0.6c0.3,0.2,0.6,0.3,0.9,0.4c1.2,0.5,2.5,0.5,3.7-0.1c0.2-0.1,0.3-0.2,0.6-0.3   c0.2-0.1,0.3-0.3,0.6-0.4c0.4-0.3,0.8-0.6,1.1-0.9c0.3-0.3,0.6-0.7,0.8-1.2c0.1-0.3,0.2-0.6,0.3-0.9c0.1-0.3,0.2-0.6,0.3-0.9   c0.1-0.2,0.1-0.4,0.2-0.6C42.7,53.9,42.7,53.7,42.7,53.5z M33.4,56.9c-0.1,0-0.2,0-0.3,0c0.2-0.1,0.3-0.2,0.5-0.2   C33.5,56.9,33.5,56.9,33.4,56.9z M34.2,40.7C34.1,40.7,34.1,40.7,34.2,40.7c-0.1,0-0.1-0.1,0-0.1C34.2,40.5,34.2,40.5,34.2,40.7   C34.2,40.6,34.2,40.6,34.2,40.7z M38.9,38.8c0.1,0,0.2,0,0.2,0.1c0,0.1,0,0.1,0,0.2c-0.1,0-0.3,0-0.4-0.1   C38.7,38.8,38.8,38.8,38.9,38.8z M37.8,38.8C37.8,38.7,37.8,38.7,37.8,38.8c0.1,0,0.1,0,0.1,0C37.9,38.9,37.8,38.9,37.8,38.8   C37.7,38.9,37.7,38.8,37.8,38.8z M34.5,44.7C34.5,44.7,34.5,44.6,34.5,44.7c0.1-0.1,0.2-0.1,0.2,0c0.1,0,0,0.1,0,0.1   C34.5,44.8,34.5,44.8,34.5,44.7z M34.6,50.1C34.6,50.1,34.5,50.1,34.6,50.1c-0.1-0.1,0-0.2,0-0.3c0,0,0.1,0,0.1,0s0,0,0,0.1   C34.7,50,34.7,50.1,34.6,50.1z M40.1,46c0,0.4,0,0.8,0,1.2c0,0.4,0,0.8,0,1.2c0,0.6,0,1.1,0,1.7c0,0.6,0,1.1-0.1,1.7v0.5   c0,0.1,0,0.2,0,0.2c0,0.4,0,0.8,0,1.2c0,0.4,0,0.8,0,1.2c0,0.3-0.1,0.5-0.2,0.7c-0.1,0.2-0.3,0.4-0.5,0.6c-0.1,0-0.1,0.1-0.2,0.2   c0,0.1-0.1,0.1-0.2,0.2c-0.4,0.4-0.8,0.6-1.3,0.6c-0.5,0-1,0-1.4-0.2c-0.4-0.2-0.7-0.5-0.9-1c-0.1-0.2-0.1-0.4-0.1-0.6   c0-0.6,0-1.1-0.1-1.6c0-0.5,0-1,0.1-1.6c0.1-0.5,0-1.1-0.1-1.6c0-0.3,0-0.6,0-0.9c0-0.3,0-0.6,0-0.9c0-0.3,0-0.5,0.1-0.8   c0-0.3,0-0.6,0-0.8c0-0.3,0-0.6,0-1c0-0.3,0-0.7,0-1c0-0.2,0-0.4,0-0.6v-0.6c0-0.3,0-0.5,0-0.8c0-0.3,0-0.5,0.1-0.8   c0.1-0.3,0.3-0.7,0.6-1c0.2-0.2,0.3-0.3,0.5-0.5c0.2-0.2,0.4-0.3,0.6-0.3c0.1,0,0.3-0.1,0.4-0.1c0.1,0,0.3-0.1,0.4-0.1   c0.1,0,0.3,0,0.4,0c0.1,0,0.3,0,0.4,0c0.8,0.3,1.3,0.9,1.4,1.8c0,0.2,0.1,0.4,0.1,0.7c0,0.2,0,0.4,0,0.6V44   c-0.1,0.3-0.1,0.5,0,0.8c0,0.3,0.1,0.5,0.1,0.8c0,0.1,0,0.2,0,0.3C40.2,45.8,40.2,45.9,40.1,46z M42,53.8c0-0.1,0-0.2,0-0.2   c0,0,0.1,0,0.1,0.1C42.1,53.7,42,53.8,42,53.8z M42.1,46.6c0,0,0-0.1,0-0.2c0,0,0,0,0,0c0,0,0.1,0.1,0.1,0.1   C42.3,46.5,42.2,46.5,42.1,46.6z"></path>		<path class="st0" d="M56.1,46.4c0-0.3,0-0.5,0-0.8c0-0.3,0-0.6-0.1-1c0-0.3,0-0.6,0-1c0-0.3,0-0.5,0-0.8c0-0.3,0-0.5,0-0.8   c0.1-0.5,0.1-0.9,0-1.4c0-0.3-0.1-0.6-0.1-0.9c0-1.2,0.6-4-0.4-4.9c-0.5-0.4-1.3,0.3-1.7,0.6c-0.4,0.3-0.4,0.6-0.5,1.1   c0,0.2-0.1,0.4-0.1,0.6c0,0.3,0,0.6,0.1,0.9c0,0.3,0,0.6,0,1c-0.1,0.5-0.1,1-0.1,1.5c0,0.5,0,1,0,1.5c0,0.4,0,0.9,0,1.3   c0,0.4,0,0.9,0.1,1.3c0,0.4,0,0.7,0,1.1s0,0.7,0,1.1c0.1,0.3,0.1,0.6,0,1c-0.1,0.3-0.1,0.6-0.1,1c0,0.3,0,0.6,0,1s0,0.6,0,1   c0,0.5,0,1,0,1.5c-0.1,0.5-0.3,0.9-0.6,1.4c-0.2,0.3-0.4,0.6-0.7,0.8c-0.3,0.2-0.6,0.4-0.8,0.5c-0.1,0-0.1,0.1-0.2,0.1   c-0.1,0-0.2,0-0.2,0c-0.3,0-0.5-0.1-0.7-0.1c-0.3,0-0.5-0.2-0.7-0.3c-0.2-0.1-0.3-0.3-0.4-0.4c-0.1-0.1-0.2-0.3-0.3-0.6   c-0.1-0.5-0.2-1-0.2-1.5c0-0.5,0-1,0-1.5c0-0.2,0-0.4,0-0.6c0-0.2,0-0.4,0-0.6c0-0.7,0-1.4,0-2.1s0-1.4-0.1-2.1c0-0.4,0-0.8,0-1.2   c0.1-0.4,0.1-0.8,0.1-1.2c0-0.2,0-0.5,0-0.7c0-0.2,0-0.5,0-0.7c0-0.4,0-0.8,0.1-1.1c0-0.4,0-0.8,0-1.2c0-0.3,0-0.6,0-1   c0-0.3,0-0.6,0-1c0-0.6-0.3-0.8-0.8-0.9c-0.1,0-0.2,0-0.3,0c-0.1,0-0.2,0-0.3,0c-0.2,0-0.3,0-0.5,0.1c-0.5,0.4-0.7,0.9-0.8,1.4   c0,0.3,0,0.7,0,1c0,0.3,0,0.7,0,1c0,0.3,0,0.5,0,0.7c0,0.2,0,0.5,0,0.7c0,0.5,0,0.9,0.1,1.4c0.1,0.4,0.1,0.9,0.1,1.4   c0,0.3,0,0.5,0,0.7c0,0.2,0,0.5,0.1,0.7v0.1c-0.1,0.6-0.1,1.1-0.1,1.6c0,0.5,0,1.1,0.1,1.6c0,0.5,0,1-0.1,1.5   c-0.1,0.4-0.1,0.7,0,1c0,0.2,0,0.4,0,0.6c0,0.2,0,0.4,0,0.6c0,0.6,0,1.1,0,1.6c0,0.4,0.1,0.7,0.3,1c0.1,0.3,0.3,0.6,0.5,0.9   c0.3,0.6,0.7,1,1.2,1.2c0.3,0.1,0.6,0.3,0.8,0.3c0.3,0,0.6,0.1,0.9,0.1c0.1,0,0.2,0,0.3,0c0.1,0,0.1,0,0.2,0.1   c0.1,0.1,0.2,0.2,0.3,0.2c0.1,0,0.3,0,0.4-0.1c0.2-0.1,0.4-0.1,0.6-0.2c0.2-0.1,0.4-0.1,0.6-0.2c1.1-0.3,2-1,2.8-1.9   c0.5-0.5,0.8-1.1,0.8-1.8c0-0.1,0-0.2,0.1-0.3c0-0.1,0-0.2,0.1-0.3c0.1-0.4,0.2-0.9,0.2-1.5c0-0.4,0-0.9,0-1.3c0-0.4,0-0.9,0-1.3   c0,0,0-0.1,0-0.2c0-0.1,0-0.1,0-0.2c-0.1-0.3-0.1-0.7,0-1.2C56,46.9,56.1,46.6,56.1,46.4z M46.8,39.4   C46.8,39.4,46.8,39.4,46.8,39.4c0,0.1-0.1,0.2-0.1,0.2c0,0-0.1,0.1-0.2,0.1C46.6,39.5,46.6,39.4,46.8,39.4   C46.7,39.4,46.8,39.3,46.8,39.4C46.8,39.3,46.8,39.3,46.8,39.4z M48.8,54.8C48.8,54.8,48.8,54.8,48.8,54.8c-0.1,0-0.2,0-0.2,0   c0-0.1,0-0.1,0.1-0.1C48.8,54.6,48.8,54.6,48.8,54.8C48.9,54.7,48.9,54.8,48.8,54.8z M50.5,55.7c-0.1,0-0.1,0-0.1,0   c0,0,0-0.1,0.1-0.1c0.1,0,0.1,0,0.1,0C50.6,55.6,50.5,55.7,50.5,55.7z M54,37.2c0,0.1,0,0.1-0.1,0.1c0,0-0.1-0.1-0.1-0.2   c0,0,0-0.1,0.1-0.1C54,37,54,37.1,54,37.2z M55.4,37.2c0.1,0,0.1,0,0.1,0.2v0.2c-0.1,0-0.1,0-0.1,0c0,0,0,0-0.1,0   C55.3,37.3,55.3,37.2,55.4,37.2z M54.3,52.4c-0.1,0-0.1,0-0.1,0c0-0.1,0-0.1,0.1-0.2c0,0,0.1,0,0.1,0   C54.3,52.3,54.3,52.4,54.3,52.4z M55.2,53.3c0,0.1,0,0.2-0.1,0.3c0,0,0,0,0,0C55.1,53.5,55.1,53.4,55.2,53.3L55.2,53.3   C55.2,53.3,55.2,53.3,55.2,53.3z M55.5,51.1c0,0,0,0-0.1-0.2l0-0.1c0.1,0,0.1,0,0.1,0.1C55.6,51,55.5,51.1,55.5,51.1z"></path>		<path class="st0" d="M68.7,47.4c-0.1-0.5-0.4-0.9-0.7-1.3c-0.5-0.6-1-1.1-1.6-1.6c-0.6-0.4-1.2-0.9-1.9-1.2   c-0.3-0.1-0.5-0.3-0.8-0.6c-0.1-0.2-0.3-0.3-0.4-0.4c-0.1-0.1-0.3-0.3-0.5-0.4c-0.1-0.1-0.2-0.2-0.3-0.3c-0.1-0.1-0.2-0.1-0.3-0.3   c-0.6-0.7-0.9-1.6-0.9-2.6c0-0.1,0-0.1,0-0.2c0,0,0-0.1,0-0.2c0.2-0.5,0.4-0.9,0.7-1.2c0.3-0.3,0.5-0.6,0.8-0.8   c0.3-0.2,0.7-0.3,1.1-0.3c0.9,0,1.6,0.3,2,1.1c0.1,0.2,0.2,0.3,0.2,0.6c0,0.2,0,0.4,0.1,0.6c0,0.1,0,0.2,0,0.3   c0,0.1,0,0.2,0.2,0.2c0.1,0,0.2,0.1,0.3,0.1c0.1,0,0.3,0,0.4,0c0.2-0.1,0.5-0.2,0.8-0.2c0.3,0,0.5-0.1,0.6-0.3   c0.2-0.2,0.3-0.4,0.2-0.7c-0.1-0.5-0.2-0.9-0.3-1.4c-0.1-0.5-0.3-0.9-0.6-1.2c-0.1-0.1-0.3-0.3-0.4-0.4c-0.1-0.1-0.3-0.3-0.4-0.4   c-0.3-0.3-0.6-0.4-0.9-0.6c-0.3-0.1-0.7-0.2-1.1-0.3c-0.3-0.1-0.6-0.1-0.9,0c-0.3,0-0.6,0.1-0.9,0.3c-0.1,0-0.2,0.1-0.3,0.1   c-0.1,0-0.1,0-0.3,0c-0.3,0-0.5,0.1-0.7,0.2c-0.3,0.1-0.5,0.3-0.7,0.5c-0.3,0.3-0.6,0.6-0.9,0.9c-0.3,0.3-0.6,0.6-0.8,1   c-0.2,0.3-0.3,0.5-0.4,0.7c-0.1,0.3-0.2,0.5-0.3,0.8c-0.1,0.5-0.2,0.9-0.2,1.3c0,0.4,0,0.9,0,1.3c0,0.5,0.2,0.9,0.3,1.3   c0.2,0.4,0.4,0.8,0.6,1.2c0.2,0.3,0.4,0.6,0.7,0.8c0.3,0.2,0.6,0.5,0.8,0.7c0.1,0.1,0.3,0.3,0.4,0.3c0.2,0.1,0.3,0.2,0.5,0.3   c0.1,0,0.1,0.1,0.2,0.1c0.1,0,0.1,0.1,0.2,0.2c0.3,0.3,0.6,0.5,0.9,0.7c0.3,0.2,0.6,0.4,0.9,0.7c0.3,0.3,0.6,0.5,0.8,0.8   c0.3,0.3,0.5,0.6,0.7,0.9c0.1,0.2,0.2,0.4,0.3,0.6c0.1,0.2,0.1,0.5,0,0.7c-0.1,0.3-0.1,0.6-0.2,0.9c-0.1,0.3-0.2,0.6-0.4,0.8   c-0.2,0.2-0.4,0.4-0.6,0.6c-0.2,0.2-0.4,0.3-0.7,0.5c-0.4,0.2-0.7,0.3-1.1,0.2c-0.4,0-0.7-0.2-0.9-0.4c-0.3-0.3-0.6-0.7-0.7-1.1   s-0.3-0.9-0.3-1.5c0,0,0-0.1,0-0.2c0-0.1,0-0.2-0.1-0.2c-0.1-0.1-0.3-0.1-0.4-0.1c-0.2,0-0.3-0.1-0.4-0.1c-0.1,0-0.1,0-0.2,0   c-0.2,0.1-0.3,0.3-0.6,0.3c-0.2,0-0.3,0.1-0.6,0.2c-0.1,0-0.1,0.1-0.2,0.1c-0.1,0-0.1,0.1-0.1,0.2c0,0.3,0,0.5,0,0.7   c0,0.3,0,0.5,0,0.7c0,0.4,0,0.7,0.2,1.1c0.1,0.3,0.3,0.6,0.4,0.9c0.2,0.3,0.3,0.5,0.6,0.7c0.2,0.2,0.5,0.4,0.7,0.6   c0.2,0.2,0.5,0.3,0.7,0.3c0.3,0,0.5,0.1,0.8,0.3l0.1,0c0.2,0,0.3,0,0.5,0c0.1,0,0.3,0,0.5,0c0.5,0,0.9,0,1.3-0.2   c0.4-0.2,0.9-0.3,1.3-0.6c0.6-0.3,1-0.6,1.2-1.1c0.1-0.1,0.2-0.3,0.2-0.4c0-0.1,0.1-0.3,0.3-0.4c0.3-0.3,0.5-0.7,0.6-1.1   c0.1-0.4,0.3-0.8,0.3-1.2c0.1-0.2,0.1-0.4,0.1-0.6c0-0.2,0-0.4,0-0.7C68.9,48.5,68.9,48,68.7,47.4z M61.8,34.7c0,0,0.1,0,0.2,0   c-0.1,0-0.2,0.1-0.2,0.1c0,0-0.1,0-0.2,0C61.7,34.7,61.8,34.7,61.8,34.7z M61.6,35.1c0.1,0,0.1,0,0.2,0h0c-0.1,0-0.2,0.1-0.3,0.2   C61.6,35.2,61.6,35.2,61.6,35.1L61.6,35.1z M61.3,37.6c0,0,0,0.1-0.1,0.1c0,0-0.1,0-0.1,0c-0.1,0-0.1,0,0-0.1   c0.1-0.1,0.2-0.2,0.2-0.2C61.4,37.6,61.4,37.6,61.3,37.6z M60.3,51.7c0,0-0.1,0.1-0.3,0.1v0c0,0,0-0.1,0.1-0.1   C60.2,51.7,60.2,51.7,60.3,51.7L60.3,51.7z M60.2,50.2c-0.1,0-0.1,0-0.1,0c0,0,0-0.1,0.1-0.1c0.1,0,0.1,0,0.2,0   C60.3,50.1,60.2,50.2,60.2,50.2z M61.3,53.7C61.3,53.8,61.3,53.8,61.3,53.7C61.2,53.6,61.2,53.6,61.3,53.7   C61.4,53.5,61.4,53.5,61.3,53.7C61.4,53.6,61.4,53.7,61.3,53.7z M66.9,45.6C67,45.6,67,45.7,66.9,45.6c0.1,0.1,0.1,0.1,0.1,0.2   C66.9,45.8,66.9,45.8,66.9,45.6C66.9,45.7,66.9,45.7,66.9,45.6z M67.2,52.1C67.1,52.1,67.1,52.1,67.2,52.1c-0.1-0.1,0-0.1,0-0.1   C67.2,52,67.2,52,67.2,52.1C67.2,52,67.2,52.1,67.2,52.1z M67.5,52c-0.1,0-0.1,0-0.1,0c0-0.1,0-0.1,0.2-0.1c0.1,0,0.1,0,0.1,0   C67.7,52,67.6,52,67.5,52z"></path>		<path class="st0" d="M80.4,51.3c0-0.2,0-0.3,0-0.5c0-0.3,0-0.4-0.1-0.5c0-0.1-0.2-0.1-0.4-0.2c-0.2,0-0.4,0-0.7,0.1   c-0.1,0-0.2,0-0.3,0s-0.2,0-0.3,0c-0.2,0-0.3,0-0.5,0c-0.2,0-0.3,0-0.5,0.1c-0.3,0-0.5,0.1-0.7,0.1c-0.2,0-0.4,0.1-0.7,0.1   c-0.3,0-0.7,0-1.1,0c-0.3,0-0.5-0.2-0.7-0.5c-0.1-0.3-0.2-0.5-0.2-0.8c0-0.3,0-0.6,0-0.8c0-0.3,0-0.5,0-0.7c0-0.2,0-0.4,0-0.6v-1   c0-0.3,0-0.7,0-1c0-0.1,0-0.1,0-0.1c0.3-0.8,0.8-1.2,1.4-1.4c0.1,0,0.2,0,0.3-0.1c0.1,0,0.2,0,0.3,0c0.2,0,0.4,0,0.6-0.1   c0.2,0,0.4-0.1,0.6-0.1c0.2,0,0.3-0.1,0.4-0.2c0.1-0.1,0.2-0.3,0.2-0.5c0.1-0.3,0.1-0.5,0-0.8c0-0.3-0.1-0.5,0-0.8   c0-0.2,0-0.3-0.3-0.3c-0.2,0-0.3-0.1-0.5-0.1c-0.2,0-0.3,0-0.6,0.1c-0.1,0.1-0.2,0.1-0.3,0c-0.1,0-0.2,0-0.3,0   c-0.1,0-0.2,0.1-0.3,0.1c-0.2,0.1-0.3,0.1-0.5,0.1c-0.2,0-0.3,0-0.5,0c-0.1,0-0.2,0-0.2-0.1c-0.1-0.1-0.1-0.2-0.2-0.3   c0-0.1-0.1-0.3-0.1-0.4c0-0.4,0-0.8,0-1.2c0-0.4,0-0.8,0-1.2c0-0.4,0-0.8,0-1.2c0-0.4,0-0.7,0-1.2c0-0.5,0.3-0.9,0.6-1.1   c0.2-0.1,0.4-0.2,0.7-0.3c0.2-0.1,0.4-0.1,0.7-0.1c0.3,0,0.5,0,0.8,0c0.3,0,0.5-0.1,0.8-0.2c0.3-0.1,0.5-0.1,0.8-0.1   c0.3,0,0.5-0.1,0.8-0.1c0.4-0.1,0.8-0.3,1.1-0.5c0.1,0,0.1-0.2,0.1-0.3c0-0.2,0-0.3,0-0.5c0-0.2,0-0.3,0-0.5c0-0.2,0-0.3,0-0.5   c0-0.1-0.1-0.3-0.3-0.3c-0.1,0-0.3,0-0.4-0.1c-0.1,0-0.3,0-0.4,0c-0.5,0.1-0.9,0.1-1.4,0.2c-0.5,0.1-0.9,0.2-1.4,0.3   c-0.5,0.1-0.9,0.2-1.4,0.3c-0.5,0.1-0.9,0.1-1.4,0.1c-0.2,0-0.4,0-0.6,0.1c-0.2,0.1-0.4,0.1-0.6,0.1c0,0-0.1,0-0.2,0.1   c-0.7,0.4-1,0.9-0.9,1.6c0,0.3,0,0.6,0,0.9c0,0.3-0.1,0.5-0.1,0.8c0,0.3,0,0.5,0.1,0.7c0,0.2,0,0.3,0,0.5c0,0.2,0,0.3,0,0.5   c0,0.2,0.1,0.3,0.1,0.5V38c0,0.1,0,0.2,0,0.3c0,0.1,0,0.2,0,0.2c0,0.4,0,0.8,0,1.1c0,0.3,0,0.7-0.1,1.1v0.1c0,0.4,0,0.7,0,1.1   s0,0.7,0,1.1c0,0,0,0,0,0c0,0.3,0,0.6,0,0.8c0,0.3,0,0.5,0,0.8c0,0.1,0,0.3,0,0.3c0,0.1,0.1,0.2,0.1,0.3c0,0.3,0,0.6,0,1   c0,0.3,0,0.6,0,1c0,0.4,0,0.8-0.1,1.2c0,0.4,0,0.8,0,1.2c0,0.2,0,0.5,0,0.7c0,0.2,0,0.4,0,0.7v0.6c0,0.2,0,0.4,0.1,0.6   c0,0.1,0,0.2,0,0.3c-0.1,0.6,0.1,0.9,0.6,1.1c0.1,0,0.3,0,0.4,0.1c0.1,0,0.3,0,0.4,0c0.2,0,0.3,0,0.4-0.1c0.1,0,0.3-0.1,0.4-0.1   c0.6-0.1,1.2-0.2,1.8-0.3c0.6-0.1,1.2-0.2,1.8-0.3v0c0.2,0,0.4,0,0.6-0.1c0.2,0,0.4,0,0.6-0.1c0.2,0,0.4-0.1,0.6-0.1   c0.2,0,0.4-0.1,0.6-0.2c0.2-0.1,0.3-0.2,0.4-0.3c0.1-0.1,0.1-0.3,0.1-0.5C80.5,51.6,80.5,51.4,80.4,51.3z M79,31.6   C79,31.5,79,31.5,79,31.6c0.1-0.1,0.1-0.1,0.2,0C79.1,31.6,79.1,31.6,79,31.6L79,31.6z M78.7,32.8c0,0,0.1,0,0.1,0   c0.1,0,0.1,0,0.2,0c0,0,0,0.1,0,0.2c0,0,0,0.1-0.1,0.1C78.7,33.1,78.6,33,78.7,32.8C78.6,32.8,78.6,32.8,78.7,32.8z M72.2,47.2   C72.1,47.2,72.1,47.2,72.2,47.2c-0.1-0.2,0-0.3,0-0.3c0.1,0,0.1,0,0.1,0.1C72.3,47.1,72.3,47.1,72.2,47.2z M72.4,45.6L72.4,45.6   c0-0.2,0-0.2,0-0.2c0,0,0.1,0,0.1,0.1C72.5,45.6,72.5,45.6,72.4,45.6z M73,45.2c0.1-0.1,0.1-0.2,0.2-0.2c0.1,0,0.2,0,0.3,0   C73.3,45.2,73.1,45.3,73,45.2z M77.4,42.7c-0.1,0.1-0.3,0.1-0.4,0.1C77.2,42.6,77.3,42.6,77.4,42.7z M76.8,41.4   C76.8,41.4,76.9,41.4,76.8,41.4c0,0.2,0,0.3-0.1,0.3c0,0-0.1,0-0.1-0.1C76.6,41.6,76.6,41.5,76.8,41.4z"></path>	</g></g></svg>