<svg xmlns="http://www.w3.org/2000/svg" width="33" height="32" viewBox="0 0 33 32" fill="none"><path fill-rule="evenodd" clip-rule="evenodd" d="M5.0835 16.0001C5.0835 15.4478 5.53121 15.0001 6.0835 15.0001L27.4163 15.0001C27.9686 15.0001 28.4163 15.4478 28.4163 16.0001C28.4163 16.5524 27.9686 17.0001 27.4163 17.0001H6.0835C5.53121 17.0001 5.0835 16.5524 5.0835 16.0001ZM9.46092 25.3334C9.46092 24.7811 9.90864 24.3334 10.4609 24.3334L27.4168 24.3334C27.9691 24.3334 28.4168 24.7811 28.4168 25.3334C28.4168 25.8857 27.9691 26.3334 27.4168 26.3334L10.4609 26.3334C9.90864 26.3334 9.46092 25.8857 9.46092 25.3334ZM17.046 6.66675C17.046 6.11446 17.4937 5.66675 18.046 5.66675L27.4168 5.66675C27.9691 5.66675 28.4168 6.11446 28.4168 6.66675C28.4168 7.21903 27.9691 7.66675 27.4168 7.66675L18.046 7.66675C17.4937 7.66675 17.046 7.21903 17.046 6.66675Z" fill="#e36731"></path></svg>